<?xml version="1.0" standalone="no"?>
<!DOCTYPE svg PUBLIC "-//W3C//DTD SVG 20010904//EN"
 "http://www.w3.org/TR/2001/REC-SVG-20010904/DTD/svg10.dtd">
<svg version="1.0" xmlns="http://www.w3.org/2000/svg"
 width="584.000000pt" height="584.000000pt" viewBox="0 0 584.000000 584.000000"
 preserveAspectRatio="xMidYMid meet">

<g transform="translate(0.000000,584.000000) scale(0.100000,-0.100000)"
fill="#000000" stroke="none">
<path d="M1517 4980 c-236 -109 -445 -210 -465 -224 -59 -40 -94 -81 -551
-629 -292 -351 -431 -526 -431 -541 0 -17 105 -126 407 -420 361 -353 409
-397 431 -391 14 3 88 67 166 141 l141 135 40 174 c21 96 43 175 47 175 4 0 8
-643 8 -1428 0 -1097 3 -1431 12 -1440 9 -9 355 -12 1495 -12 l1484 0 -16 30
c-23 44 -45 148 -45 212 0 89 35 178 115 295 99 145 209 286 213 274 2 -5 -35
-81 -82 -168 -99 -185 -122 -240 -136 -325 -28 -181 72 -369 237 -446 83 -37
207 -43 301 -13 174 56 284 211 284 399 0 130 -24 191 -160 407 -94 149 -145
257 -174 360 -21 78 -22 99 -26 713 -2 352 0 632 5 632 5 0 31 -23 58 -51 64
-65 79 -73 108 -58 12 6 108 95 212 198 105 103 278 273 387 378 108 105 201
199 206 210 7 13 7 25 -1 39 -22 39 -908 1093 -945 1124 -41 35 -103 65 -586
291 l-339 159 -145 0 -145 0 -72 -69 c-174 -165 -399 -241 -679 -228 -245 10
-424 83 -584 237 l-63 60 -142 -1 -142 0 -428 -199z m888 -228 c140 -70 335
-112 520 -112 246 0 473 66 658 192 31 21 57 36 57 32 0 -16 -77 -108 -147
-175 -89 -85 -195 -145 -319 -181 -69 -20 -101 -23 -249 -23 -148 0 -180 3
-249 23 -168 48 -312 149 -413 287 -23 32 -43 62 -43 67 0 4 28 -12 63 -36 34
-24 89 -57 122 -74z m2283 -428 l22 -26 -2 -1156 -3 -1157 -27 -80 c-88 -258
-323 -424 -583 -413 -75 3 -101 9 -155 34 -76 36 -139 96 -172 162 -20 41 -23
61 -23 162 1 101 4 123 27 177 71 168 217 298 393 348 73 22 193 22 260 1 28
-9 53 -16 58 -16 4 0 7 241 7 535 0 294 -3 535 -7 535 -5 0 -289 -76 -633
-169 l-625 -168 -6 -739 c-6 -814 -3 -775 -70 -914 -45 -92 -169 -214 -266
-263 -253 -125 -515 -64 -612 143 -21 46 -26 69 -25 140 1 362 408 640 737
505 16 -7 17 42 17 950 l0 958 33 30 c30 28 99 49 807 244 462 126 785 210
800 207 14 -3 35 -16 48 -30z"/>
<path d="M4425 4054 c-27 -8 -308 -84 -623 -169 -316 -84 -576 -155 -578 -158
-3 -2 -3 -92 -2 -199 l3 -195 325 89 c179 49 462 126 630 172 l305 82 3 197
c1 108 -1 197 -5 196 -5 0 -30 -7 -58 -15z"/>
</g>
</svg>
