<?xml version="1.0" encoding="UTF-8"?>
<svg version="1.1" xmlns="http://www.w3.org/2000/svg" width="916" height="172">
<path d="M0 0 C14.94255398 -0.35436887 14.94255398 -0.35436887 21.52734375 1.421875 C25.00480218 2.23493005 28.52423649 2.67118641 32.0625 3.125 C32.743125 3.21249512 33.42375 3.29999023 34.125 3.39013672 C35.74960785 3.59653501 37.37475041 3.79871744 39 4 C39 4.66 39 5.32 39 6 C40.98 6.66 42.96 7.32 45 8 C45 8.66 45 9.32 45 10 C45.680625 10.2475 46.36125 10.495 47.0625 10.75 C52.94748302 13.25424809 57.40547786 15.18347325 60.36328125 21.01171875 C61.31252277 23.97591466 61.16134518 26.70982885 61.01953125 29.79296875 C60.97298331 35.0528856 62.74972986 39.01103211 66 43 C66 43.66 66 44.32 66 45 C66.66 45 67.32 45 68 45 C68 45.66 68 46.32 68 47 C68.70125 47.268125 69.4025 47.53625 70.125 47.8125 C71.07375 48.204375 72.0225 48.59625 73 49 C74.010625 49.391875 75.02125 49.78375 76.0625 50.1875 C79.76521262 52.47215247 81.49962008 55.00946074 83 59 C83.60849266 62.14387873 83.88104805 64.82794809 84 68 C84.08636719 69.216875 84.17273438 70.43375 84.26171875 71.6875 C84.82494998 82.61835799 82.50495982 91.67463036 78.76074219 101.89257812 C78.07859282 103.78228074 77.46071545 105.69489428 76.8515625 107.609375 C76.52929688 108.60453125 76.20703125 109.5996875 75.875 110.625 C75.60429688 111.46289062 75.33359375 112.30078125 75.0546875 113.1640625 C74 115 74 115 72.28662109 115.69067383 C69.35373446 116.08742456 67.22156615 115.53115288 64.359375 114.78515625 C63.28945313 114.51123047 62.21953125 114.23730469 61.1171875 113.95507812 C60.00601563 113.66052734 58.89484375 113.36597656 57.75 113.0625 C56.62335938 112.77181641 55.49671875 112.48113281 54.3359375 112.18164062 C51.55498826 111.46283595 48.77661416 110.73534019 46 110 C45.67 108.68 45.34 107.36 45 106 C44.38479492 106.38333496 43.76958984 106.76666992 43.13574219 107.16162109 C40.3416197 108.90122847 37.54583119 110.63814025 34.75 112.375 C33.78191406 112.97828125 32.81382812 113.5815625 31.81640625 114.203125 C30.88183594 114.78320312 29.94726562 115.36328125 28.984375 115.9609375 C28.12553711 116.49509277 27.26669922 117.02924805 26.38183594 117.57958984 C24 119 24 119 21.75512695 120.07885742 C19.39049299 121.31988732 19.02509658 122.5594981 18 125 C17.03109187 126.85954791 16.05120223 128.71340041 15.0625 130.5625 C14.55847656 131.51253906 14.05445313 132.46257812 13.53515625 133.44140625 C12.16532934 135.7244511 11.06793328 137.34778527 9 139 C4.08273952 140.20612049 0.56739817 140.28369908 -4 138 C-6.22443311 135.63205508 -6.9890477 134.03864288 -7.0234375 130.77734375 C-6.66787024 126.72782774 -6.30066949 124.45100423 -4 121 C-4.66 121 -5.32 121 -6 121 C-6.495 122.485 -6.495 122.485 -7 124 C-12.3881183 119.35824344 -15.51486031 113.46735821 -19.0625 107.375 C-20.39408951 105.12136456 -21.72744325 102.86877067 -23.0625 100.6171875 C-23.72378906 99.50053711 -24.38507812 98.38388672 -25.06640625 97.23339844 C-27.8301333 92.61183265 -30.67912126 88.04763252 -33.5625 83.5 C-34.02599854 82.76700684 -34.48949707 82.03401367 -34.96704102 81.27880859 C-35.41233154 80.57836426 -35.85762207 79.87791992 -36.31640625 79.15625 C-36.7458252 78.47949219 -37.17524414 77.80273438 -37.61767578 77.10546875 C-38.61501726 75.58638135 -39.64958576 74.09150925 -40.70654297 72.61328125 C-41.54596436 71.42798828 -41.54596436 71.42798828 -42.40234375 70.21875 C-43.18146118 69.15043945 -43.18146118 69.15043945 -43.97631836 68.06054688 C-45 66 -45 66 -44.93017578 63.91918945 C-43.66415695 61.30707028 -42.21469256 60.53302641 -39.71484375 59.07421875 C-38.8024292 58.5318457 -37.89001465 57.98947266 -36.94995117 57.43066406 C-35.95584229 56.85541992 -34.9617334 56.28017578 -33.9375 55.6875 C-31.84808945 54.44807817 -29.75957797 53.2071397 -27.671875 51.96484375 C-26.03702148 50.99780518 -26.03702148 50.99780518 -24.36914062 50.01123047 C-18.76270936 46.66443476 -13.22417362 43.21057887 -7.6875 39.75 C-6.13180298 38.78453247 -6.13180298 38.78453247 -4.54467773 37.79956055 C-3.58505127 37.20054932 -2.6254248 36.60153809 -1.63671875 35.984375 C-0.78811279 35.45553711 0.06049316 34.92669922 0.93481445 34.38183594 C3.09894796 33.03069148 3.09894796 33.03069148 5 31 C1.7 30.01 -1.6 29.02 -5 28 C-4.37922374 21.52432348 -3.33183542 15.28837757 -1.9375 8.9375 C-1.75123047 8.07189453 -1.56496094 7.20628906 -1.37304688 6.31445312 C-0.91933733 4.20877549 -0.46023996 2.10425993 0 0 Z M7 29 C6.67 29.66 6.34 30.32 6 31 C6.99 30.67 7.98 30.34 9 30 C8.34 29.67 7.68 29.34 7 29 Z M53 34 C52.58334219 40.94429682 54.38624631 45.78445235 59 51 C59.66 51 60.32 51 61 51 C61 51.66 61 52.32 61 53 C61.99 53 62.98 53 64 53 C64 52.34 64 51.68 64 51 C63.2575 50.46375 62.515 49.9275 61.75 49.375 C57.13919781 45.39294356 54.75584769 40.04678151 54 34 C53.67 34 53.34 34 53 34 Z M36.30957031 59.53417969 C35.46491211 60.07977539 34.62025391 60.62537109 33.75 61.1875 C32.44047363 62.00395996 32.44047363 62.00395996 31.10449219 62.83691406 C28.38959117 64.53778039 25.69336354 66.2652664 23 68 C22.1440625 68.54672363 21.288125 69.09344727 20.40625 69.65673828 C15.5823954 72.73854071 10.7818262 75.8534097 6 79 C5.731875 78.360625 5.46375 77.72125 5.1875 77.0625 C4.11332248 74.66868314 4.11332248 74.66868314 1 74 C1 73.34 1 72.68 1 72 C-4.56498865 69.10156841 -7.84879233 68.46219808 -14 70 C-16.67956855 72.26088597 -16.94998484 73.51985442 -17.3125 77 C-16.90810804 80.88216281 -16.07131494 82.84297986 -13.4375 85.6875 C-9.4493019 87.83499128 -4.67383555 88.4549522 -0.18920898 87.69189453 C2.58231983 86.81595914 4.77237914 85.47221038 7.24609375 83.9453125 C8.74946289 83.02298828 8.74946289 83.02298828 10.28320312 82.08203125 C11.32412109 81.43621094 12.36503906 80.79039063 13.4375 80.125 C15.49869647 78.85676849 17.55989434 77.58853924 19.62109375 76.3203125 C20.5330249 75.75586426 21.44495605 75.19141602 22.38452148 74.60986328 C23.67918335 73.81298096 23.67918335 73.81298096 25 73 C25.85343994 72.43651855 26.70687988 71.87303711 27.58618164 71.29248047 C30 70 30 70 34 70 C34.495 71.485 34.495 71.485 35 73 C36.75881906 74.78255008 36.75881906 74.78255008 38.875 76.5 C42.86029412 79.85294118 42.86029412 79.85294118 44.6328125 81.71875 C45.93093678 83.22793414 45.93093678 83.22793414 48 83 C48.4021875 83.8971875 48.4021875 83.8971875 48.8125 84.8125 C49.98493467 86.97224808 51.19369282 88.35790256 53 90 C48.81185728 93.53555243 44.3432106 96.38750769 39.6875 99.25 C38.94693359 99.70890625 38.20636719 100.1678125 37.44335938 100.640625 C35.6306939 101.76330813 33.81559216 102.88205606 32 104 C31.37480469 103.04738281 30.74960937 102.09476563 30.10546875 101.11328125 C27.6723452 97.51550858 26.21333943 95.53669321 21.921875 94.49609375 C18.23177804 93.91569771 15.59288096 93.8147247 12 94.9375 C9.45769121 97.55925594 9.09089309 99.41803722 8.8671875 103.00390625 C9.13992449 107.10298279 11.08758748 109.19818293 14.0625 111.8125 C19.25515633 113.91165894 24.1470531 114.08880582 29.42578125 112.07421875 C32.38278883 110.51523652 35.17737839 108.79256539 38 107 C39.45278306 106.09320195 40.90593687 105.18699771 42.359375 104.28125 C46.43826673 101.72713068 50.49771108 99.14342484 54.5546875 96.5546875 C58.41870007 94.09801497 62.30231882 91.67300675 66.1875 89.25 C67.22136841 88.60466309 67.22136841 88.60466309 68.27612305 87.94628906 C69.85048068 86.96376312 71.42519532 85.98180926 73 85 C72.22976993 81.22031427 70.97047577 79.52040369 68 77 C67.34 77 66.68 77 66 77 C65.505 75.515 65.505 75.515 65 74 C64.34 74 63.68 74 63 74 C63 73.34 63 72.68 63 72 C62.34 72 61.68 72 61 72 C61 71.34 61 70.68 61 70 C60.34 70 59.68 70 59 70 C59 69.34 59 68.68 59 68 C55.94441577 64.97482091 55.94441577 64.97482091 52 64 C52 63.34 52 62.68 52 62 C51.34 62 50.68 62 50 62 C50 61.34 50 60.68 50 60 C49.34 60 48.68 60 48 60 C48 59.34 48 58.68 48 58 C43.30695895 54.76638025 40.63863778 56.87188165 36.30957031 59.53417969 Z M-1 118 C-1.33 118.66 -1.66 119.32 -2 120 C0.64 119.67 3.28 119.34 6 119 C6 118.67 6 118.34 6 118 C3.69 118 1.38 118 -1 118 Z " fill="#121312" transform="translate(832,0)"/>
<path d="M0 0 C63.10412206 0 63.10412206 0 76.875 13.625 C77.91807849 14.74869111 78.95994687 15.87350813 80 17 C81.0828125 17.928125 81.0828125 17.928125 82.1875 18.875 C89.64021283 27.61266332 91.67904433 41.67347219 91.3515625 52.79296875 C89.81792989 66.78310625 85.72071883 78.69020642 74.73046875 87.90234375 C52.76897224 105.16928903 27.5658728 100 0 100 C0 67 0 34 0 0 Z M23 19 C23 38.8 23 58.6 23 79 C42.52347072 79.89243708 42.52347072 79.89243708 59 72 C65.77958409 64.90508642 68.39499782 57.0986403 68.203125 47.45703125 C67.44784175 38.32100886 63.87433157 32.03358598 57 26 C54.43837039 24.26535317 51.88409192 23.09817346 49 22 C48.05640625 21.55527344 48.05640625 21.55527344 47.09375 21.1015625 C38.88908658 17.66191514 32.6829413 19 23 19 Z " fill="#101010" transform="translate(485,41)"/>
<path d="M0 0 C6.69468321 3.64651379 11.31514656 7.75967175 15.31640625 14.26171875 C15.31640625 14.92171875 15.31640625 15.58171875 15.31640625 16.26171875 C15.97640625 16.26171875 16.63640625 16.26171875 17.31640625 16.26171875 C18.99470075 20.6612003 19.57282579 24.31591116 19.58203125 29.015625 C19.58589844 30.91538086 19.58589844 30.91538086 19.58984375 32.85351562 C19.58210937 34.16384766 19.574375 35.47417969 19.56640625 36.82421875 C19.57800781 38.79551758 19.57800781 38.79551758 19.58984375 40.80664062 C19.58726562 42.07185547 19.5846875 43.33707031 19.58203125 44.640625 C19.57977539 45.79119385 19.57751953 46.9417627 19.57519531 48.12719727 C19.31833217 51.23839147 18.63993022 53.45399474 17.31640625 56.26171875 C16.65640625 56.26171875 15.99640625 56.26171875 15.31640625 56.26171875 C15.13078125 56.92171875 14.94515625 57.58171875 14.75390625 58.26171875 C11.1640185 65.7536584 5.8529023 70.12280699 -1.68359375 73.26171875 C-2.26625 73.61492187 -2.84890625 73.968125 -3.44921875 74.33203125 C-9.79522794 76.97250361 -18.790133 76.36697457 -25.109375 73.953125 C-27.73715488 72.50175519 -30.21610621 70.96816128 -32.68359375 69.26171875 C-33.34359375 68.93171875 -34.00359375 68.60171875 -34.68359375 68.26171875 C-34.68359375 80.14171875 -34.68359375 92.02171875 -34.68359375 104.26171875 C-41.94359375 104.26171875 -49.20359375 104.26171875 -56.68359375 104.26171875 C-56.68359375 69.94171875 -56.68359375 35.62171875 -56.68359375 0.26171875 C-49.42359375 0.26171875 -42.16359375 0.26171875 -34.68359375 0.26171875 C-34.68359375 2.24171875 -34.68359375 4.22171875 -34.68359375 6.26171875 C-34.18730469 5.86339844 -33.69101562 5.46507813 -33.1796875 5.0546875 C-22.7909508 -3.04734434 -12.38391228 -5.66519262 0 0 Z M-32.68359375 23.26171875 C-36.36638047 31.93066526 -36.18546224 39.34881224 -33.68359375 48.26171875 C-33.02359375 48.26171875 -32.36359375 48.26171875 -31.68359375 48.26171875 C-31.65265625 49.12796875 -31.65265625 49.12796875 -31.62109375 50.01171875 C-30.41156225 52.91459436 -28.66466767 54.06691333 -25.9140625 55.49609375 C-21.5388795 56.99790788 -17.2233856 56.94063022 -12.68359375 56.26171875 C-7.03887243 53.49067374 -3.61527822 49.77726682 -1.43359375 43.88671875 C0.01884953 36.86657622 -0.36477765 30.66645157 -3.68359375 24.26171875 C-7.74438182 19.54919926 -12.30399396 16.71233206 -18.49609375 15.88671875 C-23.93562987 16.52666418 -29.15505447 18.97706391 -32.68359375 23.26171875 Z " fill="#141414" transform="translate(777.68359375,67.73828125)"/>
<path d="M0 0 C6.92476907 5.35633847 6.92476907 5.35633847 8.1171875 8.93359375 C8.6121875 9.36671875 9.1071875 9.79984375 9.6171875 10.24609375 C11.71328984 12.60420889 11.68671789 14.86649781 12.1171875 17.93359375 C9.54081162 19.30266791 6.95750646 20.6538783 4.3671875 21.99609375 C3.63757813 22.38603516 2.90796875 22.77597656 2.15625 23.17773438 C1.44726562 23.54189453 0.73828125 23.90605469 0.0078125 24.28125 C-0.64155273 24.62164307 -1.29091797 24.96203613 -1.95996094 25.31274414 C-4.37048472 26.09105318 -5.55201958 25.88685305 -7.8828125 24.93359375 C-8.5634375 24.04671875 -9.2440625 23.15984375 -9.9453125 22.24609375 C-14.27726802 16.80810704 -20.31931096 13.53677948 -27.13671875 12.3828125 C-36.5091321 11.99552269 -43.22940552 14.92052325 -50.5078125 20.62109375 C-51.2915625 21.38421875 -52.0753125 22.14734375 -52.8828125 22.93359375 C-52.8828125 23.59359375 -52.8828125 24.25359375 -52.8828125 24.93359375 C-53.34300781 25.38992187 -53.80320312 25.84625 -54.27734375 26.31640625 C-58.66934418 30.74046508 -59.11064193 37.435214 -59.2578125 43.37109375 C-58.99246443 52.48845355 -57.05545462 59.82222817 -51.0859375 66.8828125 C-45.23967406 72.32481304 -38.55300802 75.25601268 -30.5703125 75.49609375 C-21.6876271 74.96474976 -15.95481646 71.18338161 -9.8828125 64.93359375 C-7.92621199 62.21326102 -7.92621199 62.21326102 -6.8828125 59.93359375 C-0.42927635 61.99124296 5.8533138 64.35742857 12.1171875 66.93359375 C11.49665578 72.31153531 10.99292999 76.05785126 7.1171875 79.93359375 C6.3953125 80.67609375 5.6734375 81.41859375 4.9296875 82.18359375 C-3.63971008 90.56256027 -12.31723432 97.04928805 -24.7890625 97.06640625 C-26.15224609 97.06833984 -26.15224609 97.06833984 -27.54296875 97.0703125 C-28.48011719 97.06644531 -29.41726562 97.06257813 -30.3828125 97.05859375 C-31.78853516 97.06439453 -31.78853516 97.06439453 -33.22265625 97.0703125 C-34.13144531 97.06902344 -35.04023437 97.06773437 -35.9765625 97.06640625 C-36.79833984 97.06527832 -37.62011719 97.06415039 -38.46679688 97.06298828 C-41.01888683 96.92630602 -43.39176293 96.49202806 -45.8828125 95.93359375 C-45.8828125 95.27359375 -45.8828125 94.61359375 -45.8828125 93.93359375 C-46.8109375 93.91296875 -47.7390625 93.89234375 -48.6953125 93.87109375 C-57.27830981 92.63500286 -65.598305 85.5458009 -70.8828125 78.93359375 C-76.8828125 70.20026042 -76.8828125 70.20026042 -76.8828125 65.93359375 C-77.5428125 65.93359375 -78.2028125 65.93359375 -78.8828125 65.93359375 C-81.05324678 59.15978203 -81.25508053 52.78189148 -81.25341797 45.71020508 C-81.25778106 43.63603915 -81.29414258 41.56402379 -81.33203125 39.49023438 C-81.40007562 31.50474551 -80.62694228 25.05595762 -76.8828125 17.93359375 C-76.40199219 16.97066406 -75.92117187 16.00773437 -75.42578125 15.015625 C-67.7869225 2.22548975 -57.18346361 -4.94121843 -42.8828125 -9.06640625 C-26.85553472 -12.3059624 -13.18535293 -9.45128956 0 0 Z " fill="#141514" transform="translate(80.8828125,47.06640625)"/>
<path d="M0 0 C0.75925781 0.35191406 1.51851563 0.70382813 2.30078125 1.06640625 C7.65164297 3.79129886 12.36174999 7.15982811 16 12 C16.34751012 13.32970884 16.68332471 14.66261238 17 16 C17.66 16.33 18.32 16.66 19 17 C22.62972887 23.99895088 22.96024771 32.2681793 23 40 C22.67 40.99 22.34 41.98 22 43 C4.51 43.33 -12.98 43.66 -31 44 C-28.04681032 52.44899889 -28.04681032 52.44899889 -24.5 55.0625 C-17.81563981 56.85295362 -9.21926209 57.42059415 -3 54 C-1.62324248 52.02964051 -0.28519811 50.0312665 1 48 C3.95970455 48.28102245 6.917288 48.5742918 9.875 48.875 C10.71675781 48.95363281 11.55851562 49.03226563 12.42578125 49.11328125 C13.23144531 49.19707031 14.03710938 49.28085938 14.8671875 49.3671875 C15.61081543 49.44050293 16.35444336 49.51381836 17.12060547 49.58935547 C19 50 19 50 21 52 C21.38129695 55.62232104 20.9958079 57.95876891 19 61 C11.84200685 69.24253757 1.91852057 74.90814794 -9 76 C-14.44793803 76.20541406 -19.64116809 76.12817514 -25 75 C-25 74.34 -25 73.68 -25 73 C-25.94875 72.95875 -26.8975 72.9175 -27.875 72.875 C-34.81718521 71.84704965 -41.03542682 67.66622678 -45.375 62.25 C-52.60067087 51.38078971 -54.09665925 39.55028115 -52.375 26.6875 C-50.51284703 17.51238867 -46.47139345 9.78380971 -39 4 C-35.33525593 1.72556399 -32.36175 0 -28 0 C-28 -0.66 -28 -1.32 -28 -2 C-18.68122555 -4.17204517 -8.73357844 -4.08003946 0 0 Z M-28 19 C-29.32 22.3 -30.64 25.6 -32 29 C-21.11 29 -10.22 29 1 29 C-1.82314384 19.36023122 -1.82314384 19.36023122 -6.625 16.375 C-14.1686791 13.42495789 -21.75347197 13.75291645 -28 19 Z " fill="#111111" transform="translate(451,68)"/>
<path d="M0 0 C4.25018871 3.00526403 7.45133513 6.41293777 10.59375 10.54296875 C11.0990625 11.12433594 11.604375 11.70570312 12.125 12.3046875 C18.26388877 21.65996214 17.38834494 35.38249404 15.28515625 45.8984375 C12.69054671 55.82245251 6.09541017 62.16104822 -2.40625 67.54296875 C-12.93347389 72.68454951 -22.97399186 73.48888503 -34.40625 71.54296875 C-34.40625 70.88296875 -34.40625 70.22296875 -34.40625 69.54296875 C-35.19 69.50171875 -35.97375 69.46046875 -36.78125 69.41796875 C-45.4910913 67.31559326 -52.34022186 61.82450223 -57.40625 54.54296875 C-63.09004235 44.39184145 -63.25931153 29.00686844 -60.28125 17.91796875 C-59.421875 15.66796875 -59.421875 15.66796875 -58.40625 13.54296875 C-58.05046875 12.77984375 -57.6946875 12.01671875 -57.328125 11.23046875 C-53.31294319 4.07086744 -46.67983738 -0.00818555 -39.40625 -3.45703125 C-38.08625 -3.45703125 -36.76625 -3.45703125 -35.40625 -3.45703125 C-35.40625 -4.11703125 -35.40625 -4.77703125 -35.40625 -5.45703125 C-23.42356546 -9.17684681 -10.45837783 -6.33275151 0 0 Z M-36.65625 19.85546875 C-40.16692643 25.2468647 -41.19471031 31.18676563 -40.40625 37.54296875 C-38.99106553 43.12106813 -36.67740427 48.46396848 -31.6484375 51.66015625 C-28.81547527 52.77557343 -26.5084376 52.80830135 -23.46875 52.79296875 C-22.44910156 52.798125 -21.42945313 52.80328125 -20.37890625 52.80859375 C-16.14948046 52.43066871 -13.45468309 51.7653675 -10.640625 48.484375 C-9.90585937 47.30681641 -9.90585937 47.30681641 -9.15625 46.10546875 C-8.65609375 45.32300781 -8.1559375 44.54054688 -7.640625 43.734375 C-4.72760494 38.56284255 -4.84457483 33.32584968 -5.40625 27.54296875 C-7.15397986 21.60068721 -10.41354478 18.04848518 -15.40625 14.54296875 C-24.02457866 11.67019253 -30.36820648 13.39275735 -36.65625 19.85546875 Z " fill="#151615" transform="translate(696.40625,71.45703125)"/>
<path d="M0 0 C6.93 0 13.86 0 21 0 C21.02578125 3.32320313 21.0515625 6.64640625 21.078125 10.0703125 C21.11656354 13.29728582 21.1617181 16.52410034 21.20751953 19.75097656 C21.23570362 21.98950591 21.25693086 24.2281343 21.27099609 26.46679688 C21.29246048 29.68931694 21.3391306 32.91064938 21.390625 36.1328125 C21.39185364 37.12991241 21.39308228 38.12701233 21.39434814 39.15432739 C21.51834225 45.06849173 22.1017096 48.47037402 26 53 C28.98835411 55.34799252 32.22223663 55.42424435 35.97265625 55.3125 C39.42656706 54.78010527 41.41844495 53.28137423 44 51 C47.50909316 45.64498035 47.47023469 40.75957732 47.51171875 34.5703125 C47.52966995 33.57998016 47.54762115 32.58964783 47.56611633 31.56930542 C47.62008901 28.42124629 47.65407356 25.27333767 47.6875 22.125 C47.72068454 19.98435412 47.75517525 17.84372806 47.79101562 15.703125 C47.87825554 10.46872989 47.9384366 5.23501146 48 0 C54.93 0 61.86 0 69 0 C69 24.09 69 48.18 69 73 C62.4 73 55.8 73 49 73 C48.34 70.69 47.68 68.38 47 66 C46.05125 66.9075 45.1025 67.815 44.125 68.75 C38.55286528 73.50038556 31.52994322 76.84631968 24.06640625 76.37890625 C16.10665817 74.91936832 9.88731103 71.48926298 5 65 C2.82990804 61.29534301 2 58.36365135 2 54 C1.34 54 0.68 54 0 54 C0 36.18 0 18.36 0 0 Z " fill="#121312" transform="translate(268,68)"/>
<path d="M0 0 C6.93 0 13.86 0 21 0 C21.03738281 3.23941406 21.07476562 6.47882813 21.11328125 9.81640625 C21.15954381 12.96727094 21.21076035 16.11801906 21.26245117 19.26879883 C21.29562552 21.4519945 21.3236806 23.63527439 21.34643555 25.81860352 C21.38011904 28.96406817 21.43244276 32.10876624 21.48828125 35.25390625 C21.49467117 36.2239711 21.5010611 37.19403595 21.50764465 38.1934967 C21.62976046 43.87186637 22.29091303 47.97568402 25 53 C27.86092065 55.43708055 31.21153715 55.42287926 34.90234375 55.3125 C38.73287169 54.74184407 40.89959536 53.35630753 44 51 C46.48669902 45.69123503 46.34444004 40.3164414 46.4140625 34.5703125 C46.43342865 33.57998016 46.4527948 32.58964783 46.4727478 31.56930542 C46.53229553 28.4212899 46.5788297 25.27323732 46.625 22.125 C46.6632026 19.98435948 46.70225565 17.84373396 46.7421875 15.703125 C46.83956973 10.46883018 46.91933574 5.23468575 47 0 C53.93 0 60.86 0 68 0 C68 24.09 68 48.18 68 73 C61.4 73 54.8 73 48 73 C48 70.69 48 68.38 48 66 C47.40832031 66.39832031 46.81664062 66.79664063 46.20703125 67.20703125 C30.71250166 77.59569628 30.71250166 77.59569628 19.8671875 75.609375 C12.80180511 73.68916654 6.73196823 69.34793637 2.8046875 63.09765625 C0.54271656 58.07959449 -0.12652534 53.0141157 -0.11352539 47.56713867 C-0.11344986 46.50641647 -0.11337433 45.44569427 -0.11329651 44.35282898 C-0.10813522 43.2193251 -0.10297394 42.08582123 -0.09765625 40.91796875 C-0.0962413 39.74865311 -0.09482635 38.57933746 -0.09336853 37.37458801 C-0.08777793 33.64553249 -0.07522709 29.91653733 -0.0625 26.1875 C-0.05748379 23.65690191 -0.05292109 21.12630288 -0.04882812 18.59570312 C-0.03781156 12.39711221 -0.02055332 6.19856634 0 0 Z " fill="#121312" transform="translate(100,68)"/>
<path d="M0 0 C0 6.93 0 13.86 0 21 C6.27 21 12.54 21 19 21 C19.020625 23.619375 19.04125 26.23875 19.0625 28.9375 C19.071604 29.7637085 19.08070801 30.58991699 19.09008789 31.44116211 C19.09723945 33.29433759 19.0502852 35.14749308 19 37 C18 38 18 38 16.23413086 38.11352539 C15.48526611 38.10828857 14.73640137 38.10305176 13.96484375 38.09765625 C13.15595703 38.09443359 12.34707031 38.09121094 11.51367188 38.08789062 C10.66353516 38.07951172 9.81339844 38.07113281 8.9375 38.0625 C8.08349609 38.05798828 7.22949219 38.05347656 6.34960938 38.04882812 C4.23304337 38.03700373 2.11651315 38.01906769 0 38 C0.09367845 42.76922298 0.19980386 47.5379469 0.31738281 52.30664062 C0.35562358 53.92830859 0.39048503 55.55005996 0.421875 57.171875 C0.46763257 59.50551117 0.52560816 61.83857562 0.5859375 64.171875 C0.59748871 64.89493835 0.60903992 65.61800171 0.62094116 66.36297607 C0.73715009 70.34235139 1.16736145 72.33472289 3 76 C8.28 76 13.56 76 19 76 C19 81.94 19 87.88 19 94 C17.68 94 16.36 94 15 94 C15 94.66 15 95.32 15 96 C-5.28402765 97.20499174 -5.28402765 97.20499174 -14 90 C-19.31554257 84.76979871 -21.0387158 78.00476803 -21.22705078 70.6953125 C-21.22673985 69.1718383 -21.21578638 67.64833665 -21.1953125 66.125 C-21.1924826 65.31506592 -21.18965271 64.50513184 -21.18673706 63.6706543 C-21.17564715 61.11361166 -21.15056452 58.55693465 -21.125 56 C-21.1149557 54.25391135 -21.1058324 52.50781715 -21.09765625 50.76171875 C-21.07574466 46.50767415 -21.04129382 42.25389881 -21 38 C-24.96 38 -28.92 38 -33 38 C-33 32.39 -33 26.78 -33 21 C-29.04 21 -25.08 21 -21 21 C-21 15.06 -21 9.12 -21 3 C-18.64875 2.505 -16.2975 2.01 -13.875 1.5 C-13.14651855 1.34337891 -12.41803711 1.18675781 -11.66748047 1.02539062 C-7.58132139 0.18754515 -4.25355644 0 0 0 Z " fill="#141514" transform="translate(240,47)"/>
<path d="M0 0 C6.93 0 13.86 0 21 0 C21 34.32 21 68.64 21 104 C14.07 104 7.14 104 0 104 C0 69.68 0 35.36 0 0 Z " fill="#141514" transform="translate(178,37)"/>
<path d="M0 0 C0 6.93 0 13.86 0 21 C-2.97 21 -5.94 21 -9 21 C-13.68921 22.10334353 -17.31861972 23.87882976 -21 27 C-24.60144139 32.95603993 -25.59893347 38.5550786 -25.609375 45.41015625 C-25.62591125 46.26306747 -25.64244751 47.1159787 -25.65948486 47.99473572 C-25.70756346 50.68406662 -25.72924529 53.3728339 -25.75 56.0625 C-25.77819341 57.90041838 -25.80812548 59.73831095 -25.83984375 61.57617188 C-25.91654408 66.0510305 -25.95743386 70.52417011 -26 75 C-32.93 75 -39.86 75 -47 75 C-47 50.91 -47 26.82 -47 2 C-40.07 2 -33.14 2 -26 2 C-25.67 4.64 -25.34 7.28 -25 10 C-24.56429687 9.52949219 -24.12859375 9.05898437 -23.6796875 8.57421875 C-16.2739234 0.83182901 -10.73548759 -1.53364108 0 0 Z " fill="#141514" transform="translate(632,66)"/>
<path d="M0 0 C1 1 1 1 1.11352539 3.04125977 C1.10828857 3.91580811 1.10305176 4.79035645 1.09765625 5.69140625 C1.09443359 6.63564453 1.09121094 7.57988281 1.08789062 8.55273438 C1.07532227 10.04256836 1.07532227 10.04256836 1.0625 11.5625 C1.05798828 12.55958984 1.05347656 13.55667969 1.04882812 14.58398438 C1.03700007 17.05604849 1.02051849 19.52799518 1 22 C-0.51980469 22.03867188 -0.51980469 22.03867188 -2.0703125 22.078125 C-3.42191597 22.13444181 -4.77347681 22.19178833 -6.125 22.25 C-6.79015625 22.26417969 -7.4553125 22.27835938 -8.140625 22.29296875 C-13.21025175 22.54147987 -16.21251739 23.63096447 -20 27 C-23.8869453 32.70043056 -24.59966326 37.98744253 -24.609375 44.75 C-24.62591125 45.64871826 -24.64244751 46.54743652 -24.65948486 47.47338867 C-24.70768104 50.31566392 -24.72927224 53.1574053 -24.75 56 C-24.77818347 57.93882853 -24.8081142 59.87763251 -24.83984375 61.81640625 C-24.9166906 66.5445097 -24.95747274 71.27096813 -25 76 C-31.93 76 -38.86 76 -46 76 C-46 51.91 -46 27.82 -46 3 C-35.605 2.505 -35.605 2.505 -25 2 C-25 5.3 -25 8.6 -25 12 C-24.154375 10.9275 -23.30875 9.855 -22.4375 8.75 C-16.22648149 1.51357749 -9.37039802 -0.36039992 0 0 Z " fill="#171717" transform="translate(395,65)"/>
<path d="M0 0 C6.00289324 3.09826748 10.94311203 8.01122406 13.9375 14 C14.9275 14.33 15.9175 14.66 16.9375 15 C16.9375 15.66 16.9375 16.32 16.9375 17 C17.55625 17.268125 18.175 17.53625 18.8125 17.8125 C20.9375 19 20.9375 19 22.9375 22 C16.00749798 27.12441837 16.00749798 27.12441837 12.25 26.6875 C9.21330479 24.47153323 7.26464778 21.95610664 4.9375 19 C4.2775 18.67 3.6175 18.34 2.9375 18 C2.9375 17.34 2.9375 16.68 2.9375 16 C2.0403125 15.566875 2.0403125 15.566875 1.125 15.125 C-1.0625 14 -1.0625 14 -4.0625 12 C-4.0625 11.34 -4.0625 10.68 -4.0625 10 C-4.7225 10 -5.3825 10 -6.0625 10 C-6.0625 9.34 -6.0625 8.68 -6.0625 8 C-7.0525 7.67 -8.0425 7.34 -9.0625 7 C-7.69702354 2.90357061 -4.53826801 0 0 0 Z " fill="#323332" transform="translate(876.0625,61)"/>
<path d="M0 0 C2.54244171 1.27122085 2.63084559 2.04862547 3.5625 4.6875 C5.71094771 11.46001792 7.27756651 20.16730047 5 27 C-12.49 27.33 -29.98 27.66 -48 28 C-47.34 29.65 -46.68 31.3 -46 33 C-46.33 33.99 -46.66 34.98 -47 36 C-49.03435531 32.27034861 -50 30.33094958 -50 26 C-32.18 26 -14.36 26 4 26 C3.49744544 13.49085073 3.49744544 13.49085073 0 3 C0 2.01 0 1.02 0 0 Z " fill="#808080" transform="translate(468,84)"/>
<path d="M0 0 C2.95970455 0.28102245 5.917288 0.5742918 8.875 0.875 C10.13763672 0.99294922 10.13763672 0.99294922 11.42578125 1.11328125 C12.23144531 1.19707031 13.03710938 1.28085938 13.8671875 1.3671875 C14.61081543 1.44050293 15.35444336 1.51381836 16.12060547 1.58935547 C18 2 18 2 20 4 C20.125 6.625 20.125 6.625 20 9 C19.34 9 18.68 9 18 9 C18 7.68 18 6.36 18 5 C11.65758005 3.84683274 5.43311296 3.90492937 -1 4 C-1.33 4.99 -1.66 5.98 -2 7 C-2.66 6.67 -3.32 6.34 -4 6 C-2.68 4.02 -1.36 2.04 0 0 Z " fill="#959595" transform="translate(452,116)"/>
<path d="M0 0 C0.66 0.33 1.32 0.66 2 1 C0.64478423 5.06564732 -2.04035171 6.1350785 -5.5625 8.1875 C-6.17802734 8.55552734 -6.79355469 8.92355469 -7.42773438 9.30273438 C-8.94716109 10.209679 -10.47299033 11.10588168 -12 12 C-12 9 -12 9 -10.5 7.125 C-7.26761007 4.37746856 -3.84688779 1.82352473 0 0 Z " fill="#343434" transform="translate(876,102)"/>
<path d="M0 0 C2.54244171 1.27122085 2.63084559 2.04862547 3.5625 4.6875 C5.52726206 10.91258795 6.17581381 17.48651696 6 24 C5.34 24.99 4.68 25.98 4 27 C3.96261719 25.9378125 3.92523438 24.875625 3.88671875 23.78125 C3.55903996 16.26772634 3.13026123 9.94101403 0 3 C0 2.01 0 1.02 0 0 Z " fill="#BEBEBE" transform="translate(468,84)"/>
<path d="M0 0 C0.33 0.66 0.66 1.32 1 2 C-2 5 -5 8 -8 11 C-8.66 10.67 -9.32 10.34 -10 10 C-8.90033225 8.70450101 -7.79508199 7.41373929 -6.6875 6.125 C-6.07261719 5.40570313 -5.45773438 4.68640625 -4.82421875 3.9453125 C-3 2 -3 2 0 0 Z " fill="#787878" transform="translate(19,47)"/>
<path d="M0 0 C0.66 0.33 1.32 0.66 2 1 C1.04882866 2.1725131 0.08882991 3.33787015 -0.875 4.5 C-1.40867187 5.1496875 -1.94234375 5.799375 -2.4921875 6.46875 C-2.98976563 6.9740625 -3.48734375 7.479375 -4 8 C-4.66 8 -5.32 8 -6 8 C-6 8.66 -6 9.32 -6 10 C-6.66 9.67 -7.32 9.34 -8 9 C-6.85459775 7.68712379 -5.70866567 6.37470979 -4.5625 5.0625 C-3.92441406 4.33160156 -3.28632812 3.60070312 -2.62890625 2.84765625 C-1.77458541 1.87860647 -0.91348825 0.91348825 0 0 Z " fill="#797979" transform="translate(614,69)"/>
<path d="M0 0 C1.62600941 0.0870005 3.25089678 0.1951781 4.875 0.3125 C5.77992188 0.37050781 6.68484375 0.42851563 7.6171875 0.48828125 C10 1 10 1 12 4 C10.1858073 3.71905418 8.37364999 3.42493567 6.5625 3.125 C5.04849609 2.88136719 5.04849609 2.88136719 3.50390625 2.6328125 C2.67761719 2.42398438 1.85132813 2.21515625 1 2 C0.67 1.34 0.34 0.68 0 0 Z " fill="#B1B1B0" transform="translate(525,60)"/>
<path d="M0 0 C3.0466145 1.01553817 5.31143836 2.20762558 8 4 C2.58461538 4.36923077 2.58461538 4.36923077 -0.375 2.5 C-0.91125 2.005 -1.4475 1.51 -2 1 C-1.34 0.67 -0.68 0.34 0 0 Z " fill="#C4C4C3" transform="translate(896,52)"/>
</svg>
