<?xml version="1.0" encoding="UTF-8"?>
<svg version="1.1" xmlns="http://www.w3.org/2000/svg" width="919" height="171">
<path d="M0 0 C13.33260771 -0.40721766 25.86906999 0.6754518 39 3 C39 3.66 39 4.32 39 5 C40.98 5.66 42.96 6.32 45 7 C45 7.66 45 8.32 45 9 C45.680625 9.2475 46.36125 9.495 47.0625 9.75 C52.94748302 12.25424809 57.40547786 14.18347325 60.36328125 20.01171875 C61.31252277 22.97591466 61.16134518 25.70982885 61.01953125 28.79296875 C60.97298331 34.0528856 62.74972986 38.01103211 66 42 C66 42.66 66 43.32 66 44 C66.66 44 67.32 44 68 44 C68 44.66 68 45.32 68 46 C68.70125 46.268125 69.4025 46.53625 70.125 46.8125 C71.07375 47.204375 72.0225 47.59625 73 48 C74.010625 48.391875 75.02125 48.78375 76.0625 49.1875 C79.73487608 51.45343417 81.36256667 54.10804265 83 58 C83.70399103 61.0064798 84.00384632 63.98814306 84.25 67.0625 C84.32734375 67.83916016 84.4046875 68.61582031 84.484375 69.41601562 C84.69240068 71.60957216 84.85300162 73.80163394 85 76 C85.0825 76.96421875 85.165 77.9284375 85.25 78.921875 C84.87023823 83.59769184 83.29610678 87.77900105 81.75 92.1875 C81.42862061 93.11916992 81.10724121 94.05083984 80.77612305 95.01074219 C80.14073557 96.84812309 79.50176771 98.68427054 78.85888672 100.51904297 C78.13913576 102.59809619 77.45750168 104.6902922 76.78515625 106.78515625 C76.46417969 107.76355469 76.14320313 108.74195312 75.8125 109.75 C75.55082031 110.56984375 75.28914062 111.3896875 75.01953125 112.234375 C74 114 74 114 72.28881836 114.6862793 C69.35341158 115.08862572 67.22463032 114.53195152 64.359375 113.78515625 C63.28945313 113.51123047 62.21953125 113.23730469 61.1171875 112.95507812 C60.00601563 112.66052734 58.89484375 112.36597656 57.75 112.0625 C56.62335938 111.77181641 55.49671875 111.48113281 54.3359375 111.18164062 C51.55498826 110.46283595 48.77661416 109.73534019 46 109 C45.67 107.68 45.34 106.36 45 105 C44.38479492 105.38333496 43.76958984 105.76666992 43.13574219 106.16162109 C40.3416197 107.90122847 37.54583119 109.63814025 34.75 111.375 C33.78191406 111.97828125 32.81382812 112.5815625 31.81640625 113.203125 C30.88183594 113.78320312 29.94726562 114.36328125 28.984375 114.9609375 C28.12553711 115.49509277 27.26669922 116.02924805 26.38183594 116.57958984 C24 118 24 118 21.75512695 119.07885742 C19.39049299 120.31988732 19.02509658 121.5594981 18 124 C17.03109187 125.85954791 16.05120223 127.71340041 15.0625 129.5625 C14.55847656 130.51253906 14.05445313 131.46257812 13.53515625 132.44140625 C12.16532934 134.7244511 11.06793328 136.34778527 9 138 C4.08273952 139.20612049 0.56739817 139.28369908 -4 137 C-6.22443311 134.63205508 -6.9890477 133.03864288 -7.0234375 129.77734375 C-6.66787024 125.72782774 -6.30066949 123.45100423 -4 120 C-4.66 120 -5.32 120 -6 120 C-6.495 121.485 -6.495 121.485 -7 123 C-12.3881183 118.35824344 -15.51486031 112.46735821 -19.0625 106.375 C-20.39408951 104.12136456 -21.72744325 101.86877067 -23.0625 99.6171875 C-23.72378906 98.50053711 -24.38507812 97.38388672 -25.06640625 96.23339844 C-27.8301333 91.61183265 -30.67912126 87.04763252 -33.5625 82.5 C-34.02599854 81.76700684 -34.48949707 81.03401367 -34.96704102 80.27880859 C-35.41233154 79.57836426 -35.85762207 78.87791992 -36.31640625 78.15625 C-36.7458252 77.47949219 -37.17524414 76.80273438 -37.61767578 76.10546875 C-38.61501726 74.58638135 -39.64958576 73.09150925 -40.70654297 71.61328125 C-41.54596436 70.42798828 -41.54596436 70.42798828 -42.40234375 69.21875 C-43.18146118 68.15043945 -43.18146118 68.15043945 -43.97631836 67.06054688 C-45 65 -45 65 -44.93017578 62.91918945 C-43.66415695 60.30707028 -42.21469256 59.53302641 -39.71484375 58.07421875 C-38.8024292 57.5318457 -37.89001465 56.98947266 -36.94995117 56.43066406 C-35.95584229 55.85541992 -34.9617334 55.28017578 -33.9375 54.6875 C-31.84808945 53.44807817 -29.75957797 52.2071397 -27.671875 50.96484375 C-26.03702148 49.99780518 -26.03702148 49.99780518 -24.36914062 49.01123047 C-18.76270936 45.66443476 -13.22417362 42.21057887 -7.6875 38.75 C-6.13180298 37.78453247 -6.13180298 37.78453247 -4.54467773 36.79956055 C-3.58505127 36.20054932 -2.6254248 35.60153809 -1.63671875 34.984375 C-0.78811279 34.45553711 0.06049316 33.92669922 0.93481445 33.38183594 C3.09894796 32.03069148 3.09894796 32.03069148 5 30 C1.7 29.01 -1.6 28.02 -5 27 C-4.39828638 20.67250629 -3.37848091 14.62404348 -1.9375 8.4375 C-1.75123047 7.61958984 -1.56496094 6.80167969 -1.37304688 5.95898438 C-0.91979313 3.97164104 -0.46053788 1.98566799 0 0 Z M7 28 C6.67 28.66 6.34 29.32 6 30 C6.99 29.67 7.98 29.34 9 29 C8.34 28.67 7.68 28.34 7 28 Z M53 33 C52.58334219 39.94429682 54.38624631 44.78445235 59 50 C59.66 50 60.32 50 61 50 C61 50.66 61 51.32 61 52 C61.99 52 62.98 52 64 52 C64 51.34 64 50.68 64 50 C63.2575 49.46375 62.515 48.9275 61.75 48.375 C57.13919781 44.39294356 54.75584769 39.04678151 54 33 C53.67 33 53.34 33 53 33 Z M36.30957031 58.53417969 C35.46491211 59.07977539 34.62025391 59.62537109 33.75 60.1875 C32.44047363 61.00395996 32.44047363 61.00395996 31.10449219 61.83691406 C28.38959117 63.53778039 25.69336354 65.2652664 23 67 C22.1440625 67.54672363 21.288125 68.09344727 20.40625 68.65673828 C15.5823954 71.73854071 10.7818262 74.8534097 6 78 C5.731875 77.360625 5.46375 76.72125 5.1875 76.0625 C4.11332248 73.66868314 4.11332248 73.66868314 1 73 C1 72.34 1 71.68 1 71 C-4.56498865 68.10156841 -7.84879233 67.46219808 -14 69 C-16.67956855 71.26088597 -16.94998484 72.51985442 -17.3125 76 C-16.90810804 79.88216281 -16.07131494 81.84297986 -13.4375 84.6875 C-9.4493019 86.83499128 -4.67383555 87.4549522 -0.18920898 86.69189453 C2.58231983 85.81595914 4.77237914 84.47221038 7.24609375 82.9453125 C8.74946289 82.02298828 8.74946289 82.02298828 10.28320312 81.08203125 C11.32412109 80.43621094 12.36503906 79.79039063 13.4375 79.125 C15.49869647 77.85676849 17.55989434 76.58853924 19.62109375 75.3203125 C20.5330249 74.75586426 21.44495605 74.19141602 22.38452148 73.60986328 C23.67918335 72.81298096 23.67918335 72.81298096 25 72 C25.85343994 71.43651855 26.70687988 70.87303711 27.58618164 70.29248047 C30 69 30 69 34 69 C34.495 70.485 34.495 70.485 35 72 C36.75881906 73.78255008 36.75881906 73.78255008 38.875 75.5 C42.86029412 78.85294118 42.86029412 78.85294118 44.6328125 80.71875 C45.93093678 82.22793414 45.93093678 82.22793414 48 82 C48.4021875 82.8971875 48.4021875 82.8971875 48.8125 83.8125 C49.98493467 85.97224808 51.19369282 87.35790256 53 89 C48.81185728 92.53555243 44.3432106 95.38750769 39.6875 98.25 C38.94693359 98.70890625 38.20636719 99.1678125 37.44335938 99.640625 C35.6306939 100.76330813 33.81559216 101.88205606 32 103 C31.37480469 102.04738281 30.74960937 101.09476563 30.10546875 100.11328125 C27.6723452 96.51550858 26.21333943 94.53669321 21.921875 93.49609375 C18.23177804 92.91569771 15.59288096 92.8147247 12 93.9375 C9.45769121 96.55925594 9.09089309 98.41803722 8.8671875 102.00390625 C9.13992449 106.10298279 11.08758748 108.19818293 14.0625 110.8125 C19.25515633 112.91165894 24.1470531 113.08880582 29.42578125 111.07421875 C32.38278883 109.51523652 35.17737839 107.79256539 38 106 C39.45278306 105.09320195 40.90593687 104.18699771 42.359375 103.28125 C46.43826673 100.72713068 50.49771108 98.14342484 54.5546875 95.5546875 C58.41870007 93.09801497 62.30231882 90.67300675 66.1875 88.25 C67.22136841 87.60466309 67.22136841 87.60466309 68.27612305 86.94628906 C69.85048068 85.96376312 71.42519532 84.98180926 73 84 C72.22976993 80.22031427 70.97047577 78.52040369 68 76 C67.34 76 66.68 76 66 76 C65.505 74.515 65.505 74.515 65 73 C64.34 73 63.68 73 63 73 C63 72.34 63 71.68 63 71 C62.34 71 61.68 71 61 71 C61 70.34 61 69.68 61 69 C60.34 69 59.68 69 59 69 C59 68.34 59 67.68 59 67 C55.94441577 63.97482091 55.94441577 63.97482091 52 63 C52 62.34 52 61.68 52 61 C51.34 61 50.68 61 50 61 C50 60.34 50 59.68 50 59 C49.34 59 48.68 59 48 59 C48 58.34 48 57.68 48 57 C43.30695895 53.76638025 40.63863778 55.87188165 36.30957031 58.53417969 Z M-1 117 C-1.33 117.66 -1.66 118.32 -2 119 C0.64 118.67 3.28 118.34 6 118 C6 117.67 6 117.34 6 117 C3.69 117 1.38 117 -1 117 Z " fill="#FFFFFF" transform="translate(832,0)"/>
<path d="M0 0 C63.10412206 0 63.10412206 0 76.875 13.625 C77.91807849 14.74869111 78.95994687 15.87350813 80 17 C81.0828125 17.928125 81.0828125 17.928125 82.1875 18.875 C89.64021283 27.61266332 91.67904433 41.67347219 91.3515625 52.79296875 C89.81792989 66.78310625 85.72071883 78.69020642 74.73046875 87.90234375 C52.76897224 105.16928903 27.5658728 100 0 100 C0 67 0 34 0 0 Z M23 19 C23 38.8 23 58.6 23 79 C42.52347072 79.89243708 42.52347072 79.89243708 59 72 C65.77958409 64.90508642 68.39499782 57.0986403 68.203125 47.45703125 C67.44784175 38.32100886 63.87433157 32.03358598 57 26 C54.43837039 24.26535317 51.88409192 23.09817346 49 22 C48.05640625 21.55527344 48.05640625 21.55527344 47.09375 21.1015625 C38.88908658 17.66191514 32.6829413 19 23 19 Z " fill="#FEFEFE" transform="translate(485,40)"/>
<path d="M0 0 C6.69468321 3.64651379 11.31514656 7.75967175 15.31640625 14.26171875 C15.31640625 14.92171875 15.31640625 15.58171875 15.31640625 16.26171875 C15.97640625 16.26171875 16.63640625 16.26171875 17.31640625 16.26171875 C18.99470075 20.6612003 19.57282579 24.31591116 19.58203125 29.015625 C19.58589844 30.91538086 19.58589844 30.91538086 19.58984375 32.85351562 C19.58210937 34.16384766 19.574375 35.47417969 19.56640625 36.82421875 C19.57800781 38.79551758 19.57800781 38.79551758 19.58984375 40.80664062 C19.58726562 42.07185547 19.5846875 43.33707031 19.58203125 44.640625 C19.57977539 45.79119385 19.57751953 46.9417627 19.57519531 48.12719727 C19.31833217 51.23839147 18.63993022 53.45399474 17.31640625 56.26171875 C16.65640625 56.26171875 15.99640625 56.26171875 15.31640625 56.26171875 C15.13078125 56.92171875 14.94515625 57.58171875 14.75390625 58.26171875 C11.1640185 65.7536584 5.8529023 70.12280699 -1.68359375 73.26171875 C-2.26625 73.61492187 -2.84890625 73.968125 -3.44921875 74.33203125 C-9.79522794 76.97250361 -18.790133 76.36697457 -25.109375 73.953125 C-27.73715488 72.50175519 -30.21610621 70.96816128 -32.68359375 69.26171875 C-33.34359375 68.93171875 -34.00359375 68.60171875 -34.68359375 68.26171875 C-34.68359375 80.14171875 -34.68359375 92.02171875 -34.68359375 104.26171875 C-41.94359375 104.26171875 -49.20359375 104.26171875 -56.68359375 104.26171875 C-56.68359375 69.94171875 -56.68359375 35.62171875 -56.68359375 0.26171875 C-49.42359375 0.26171875 -42.16359375 0.26171875 -34.68359375 0.26171875 C-34.68359375 2.24171875 -34.68359375 4.22171875 -34.68359375 6.26171875 C-34.18730469 5.86339844 -33.69101562 5.46507813 -33.1796875 5.0546875 C-22.7909508 -3.04734434 -12.38391228 -5.66519262 0 0 Z M-32.68359375 23.26171875 C-36.36638047 31.93066526 -36.18546224 39.34881224 -33.68359375 48.26171875 C-33.02359375 48.26171875 -32.36359375 48.26171875 -31.68359375 48.26171875 C-31.65265625 49.12796875 -31.65265625 49.12796875 -31.62109375 50.01171875 C-30.41156225 52.91459436 -28.66466767 54.06691333 -25.9140625 55.49609375 C-21.5388795 56.99790788 -17.2233856 56.94063022 -12.68359375 56.26171875 C-7.03887243 53.49067374 -3.61527822 49.77726682 -1.43359375 43.88671875 C0.01884953 36.86657622 -0.36477765 30.66645157 -3.68359375 24.26171875 C-7.74438182 19.54919926 -12.30399396 16.71233206 -18.49609375 15.88671875 C-23.93562987 16.52666418 -29.15505447 18.97706391 -32.68359375 23.26171875 Z " fill="#FDFDFD" transform="translate(777.68359375,66.73828125)"/>
<path d="M0 0 C6.92476907 5.35633847 6.92476907 5.35633847 8.1171875 8.93359375 C8.6121875 9.36671875 9.1071875 9.79984375 9.6171875 10.24609375 C11.71328984 12.60420889 11.68671789 14.86649781 12.1171875 17.93359375 C9.54081162 19.30266791 6.95750646 20.6538783 4.3671875 21.99609375 C3.63757813 22.38603516 2.90796875 22.77597656 2.15625 23.17773438 C1.44726562 23.54189453 0.73828125 23.90605469 0.0078125 24.28125 C-0.64155273 24.62164307 -1.29091797 24.96203613 -1.95996094 25.31274414 C-4.37048472 26.09105318 -5.55201958 25.88685305 -7.8828125 24.93359375 C-8.5634375 24.04671875 -9.2440625 23.15984375 -9.9453125 22.24609375 C-14.27726802 16.80810704 -20.31931096 13.53677948 -27.13671875 12.3828125 C-36.5091321 11.99552269 -43.22940552 14.92052325 -50.5078125 20.62109375 C-51.2915625 21.38421875 -52.0753125 22.14734375 -52.8828125 22.93359375 C-52.8828125 23.59359375 -52.8828125 24.25359375 -52.8828125 24.93359375 C-53.34300781 25.38992187 -53.80320312 25.84625 -54.27734375 26.31640625 C-58.66934418 30.74046508 -59.11064193 37.435214 -59.2578125 43.37109375 C-58.99246443 52.48845355 -57.05545462 59.82222817 -51.0859375 66.8828125 C-45.23967406 72.32481304 -38.55300802 75.25601268 -30.5703125 75.49609375 C-21.6876271 74.96474976 -15.95481646 71.18338161 -9.8828125 64.93359375 C-7.92621199 62.21326102 -7.92621199 62.21326102 -6.8828125 59.93359375 C-0.42927635 61.99124296 5.8533138 64.35742857 12.1171875 66.93359375 C11.49665578 72.31153531 10.99292999 76.05785126 7.1171875 79.93359375 C6.3953125 80.67609375 5.6734375 81.41859375 4.9296875 82.18359375 C-3.63971008 90.56256027 -12.31723432 97.04928805 -24.7890625 97.06640625 C-26.15224609 97.06833984 -26.15224609 97.06833984 -27.54296875 97.0703125 C-28.48011719 97.06644531 -29.41726562 97.06257813 -30.3828125 97.05859375 C-31.78853516 97.06439453 -31.78853516 97.06439453 -33.22265625 97.0703125 C-34.13144531 97.06902344 -35.04023437 97.06773437 -35.9765625 97.06640625 C-36.79833984 97.06527832 -37.62011719 97.06415039 -38.46679688 97.06298828 C-41.01888683 96.92630602 -43.39176293 96.49202806 -45.8828125 95.93359375 C-45.8828125 95.27359375 -45.8828125 94.61359375 -45.8828125 93.93359375 C-46.8109375 93.91296875 -47.7390625 93.89234375 -48.6953125 93.87109375 C-57.27830981 92.63500286 -65.598305 85.5458009 -70.8828125 78.93359375 C-76.8828125 70.20026042 -76.8828125 70.20026042 -76.8828125 65.93359375 C-77.5428125 65.93359375 -78.2028125 65.93359375 -78.8828125 65.93359375 C-81.05324678 59.15978203 -81.25508053 52.78189148 -81.25341797 45.71020508 C-81.25778106 43.63603915 -81.29414258 41.56402379 -81.33203125 39.49023438 C-81.40007562 31.50474551 -80.62694228 25.05595762 -76.8828125 17.93359375 C-76.40199219 16.97066406 -75.92117187 16.00773437 -75.42578125 15.015625 C-67.7869225 2.22548975 -57.18346361 -4.94121843 -42.8828125 -9.06640625 C-26.85553472 -12.3059624 -13.18535293 -9.45128956 0 0 Z " fill="#FEFEFE" transform="translate(80.8828125,46.06640625)"/>
<path d="M0 0 C0.75925781 0.35191406 1.51851563 0.70382813 2.30078125 1.06640625 C7.65164297 3.79129886 12.36174999 7.15982811 16 12 C16.34751012 13.32970884 16.68332471 14.66261238 17 16 C17.66 16.33 18.32 16.66 19 17 C22.62972887 23.99895088 22.96024771 32.2681793 23 40 C22.67 40.99 22.34 41.98 22 43 C4.51 43.33 -12.98 43.66 -31 44 C-28.04681032 52.44899889 -28.04681032 52.44899889 -24.5 55.0625 C-17.81563981 56.85295362 -9.21926209 57.42059415 -3 54 C-1.62324248 52.02964051 -0.28519811 50.0312665 1 48 C3.95970455 48.28102245 6.917288 48.5742918 9.875 48.875 C10.71675781 48.95363281 11.55851562 49.03226563 12.42578125 49.11328125 C13.23144531 49.19707031 14.03710938 49.28085938 14.8671875 49.3671875 C15.61081543 49.44050293 16.35444336 49.51381836 17.12060547 49.58935547 C19 50 19 50 21 52 C21.38129695 55.62232104 20.9958079 57.95876891 19 61 C11.84200685 69.24253757 1.91852057 74.90814794 -9 76 C-14.44793803 76.20541406 -19.64116809 76.12817514 -25 75 C-25 74.34 -25 73.68 -25 73 C-25.94875 72.95875 -26.8975 72.9175 -27.875 72.875 C-34.81718521 71.84704965 -41.03542682 67.66622678 -45.375 62.25 C-52.60067087 51.38078971 -54.09665925 39.55028115 -52.375 26.6875 C-50.51284703 17.51238867 -46.47139345 9.78380971 -39 4 C-35.33525593 1.72556399 -32.36175 0 -28 0 C-28 -0.66 -28 -1.32 -28 -2 C-18.68122555 -4.17204517 -8.73357844 -4.08003946 0 0 Z M-28 19 C-29.32 22.3 -30.64 25.6 -32 29 C-21.11 29 -10.22 29 1 29 C-1.82314384 19.36023122 -1.82314384 19.36023122 -6.625 16.375 C-14.1686791 13.42495789 -21.75347197 13.75291645 -28 19 Z " fill="#FEFEFE" transform="translate(451,67)"/>
<path d="M0 0 C4.25018871 3.00526403 7.45133513 6.41293777 10.59375 10.54296875 C11.0990625 11.12433594 11.604375 11.70570312 12.125 12.3046875 C18.26388877 21.65996214 17.38834494 35.38249404 15.28515625 45.8984375 C12.69054671 55.82245251 6.09541017 62.16104822 -2.40625 67.54296875 C-12.93347389 72.68454951 -22.97399186 73.48888503 -34.40625 71.54296875 C-34.40625 70.88296875 -34.40625 70.22296875 -34.40625 69.54296875 C-35.19 69.50171875 -35.97375 69.46046875 -36.78125 69.41796875 C-45.4910913 67.31559326 -52.34022186 61.82450223 -57.40625 54.54296875 C-63.09004235 44.39184145 -63.25931153 29.00686844 -60.28125 17.91796875 C-59.421875 15.66796875 -59.421875 15.66796875 -58.40625 13.54296875 C-58.05046875 12.77984375 -57.6946875 12.01671875 -57.328125 11.23046875 C-53.31294319 4.07086744 -46.67983738 -0.00818555 -39.40625 -3.45703125 C-38.08625 -3.45703125 -36.76625 -3.45703125 -35.40625 -3.45703125 C-35.40625 -4.11703125 -35.40625 -4.77703125 -35.40625 -5.45703125 C-23.42356546 -9.17684681 -10.45837783 -6.33275151 0 0 Z M-36.65625 19.85546875 C-40.16692643 25.2468647 -41.19471031 31.18676563 -40.40625 37.54296875 C-38.99106553 43.12106813 -36.67740427 48.46396848 -31.6484375 51.66015625 C-28.81547527 52.77557343 -26.5084376 52.80830135 -23.46875 52.79296875 C-22.44910156 52.798125 -21.42945313 52.80328125 -20.37890625 52.80859375 C-16.14948046 52.43066871 -13.45468309 51.7653675 -10.640625 48.484375 C-9.90585937 47.30681641 -9.90585937 47.30681641 -9.15625 46.10546875 C-8.65609375 45.32300781 -8.1559375 44.54054688 -7.640625 43.734375 C-4.72760494 38.56284255 -4.84457483 33.32584968 -5.40625 27.54296875 C-7.15397986 21.60068721 -10.41354478 18.04848518 -15.40625 14.54296875 C-24.02457866 11.67019253 -30.36820648 13.39275735 -36.65625 19.85546875 Z " fill="#FEFEFE" transform="translate(696.40625,70.45703125)"/>
<path d="M0 0 C6.93 0 13.86 0 21 0 C21.02578125 3.32320313 21.0515625 6.64640625 21.078125 10.0703125 C21.11656354 13.29728582 21.1617181 16.52410034 21.20751953 19.75097656 C21.23570362 21.98950591 21.25693086 24.2281343 21.27099609 26.46679688 C21.29246048 29.68931694 21.3391306 32.91064938 21.390625 36.1328125 C21.39185364 37.12991241 21.39308228 38.12701233 21.39434814 39.15432739 C21.51834225 45.06849173 22.1017096 48.47037402 26 53 C28.98835411 55.34799252 32.22223663 55.42424435 35.97265625 55.3125 C39.42656706 54.78010527 41.41844495 53.28137423 44 51 C47.50909316 45.64498035 47.47023469 40.75957732 47.51171875 34.5703125 C47.52966995 33.57998016 47.54762115 32.58964783 47.56611633 31.56930542 C47.62008901 28.42124629 47.65407356 25.27333767 47.6875 22.125 C47.72068454 19.98435412 47.75517525 17.84372806 47.79101562 15.703125 C47.87825554 10.46872989 47.9384366 5.23501146 48 0 C54.93 0 61.86 0 69 0 C69 24.09 69 48.18 69 73 C62.4 73 55.8 73 49 73 C48.34 70.69 47.68 68.38 47 66 C46.05125 66.9075 45.1025 67.815 44.125 68.75 C38.55286528 73.50038556 31.52994322 76.84631968 24.06640625 76.37890625 C16.10665817 74.91936832 9.88731103 71.48926298 5 65 C2.82990804 61.29534301 2 58.36365135 2 54 C1.34 54 0.68 54 0 54 C0 36.18 0 18.36 0 0 Z " fill="#FEFEFE" transform="translate(268,67)"/>
<path d="M0 0 C6.93 0 13.86 0 21 0 C21.03738281 3.23941406 21.07476562 6.47882813 21.11328125 9.81640625 C21.15954381 12.96727094 21.21076035 16.11801906 21.26245117 19.26879883 C21.29562552 21.4519945 21.3236806 23.63527439 21.34643555 25.81860352 C21.38011904 28.96406817 21.43244276 32.10876624 21.48828125 35.25390625 C21.49467117 36.2239711 21.5010611 37.19403595 21.50764465 38.1934967 C21.62976046 43.87186637 22.29091303 47.97568402 25 53 C27.86092065 55.43708055 31.21153715 55.42287926 34.90234375 55.3125 C38.73287169 54.74184407 40.89959536 53.35630753 44 51 C46.48669902 45.69123503 46.34444004 40.3164414 46.4140625 34.5703125 C46.43342865 33.57998016 46.4527948 32.58964783 46.4727478 31.56930542 C46.53229553 28.4212899 46.5788297 25.27323732 46.625 22.125 C46.6632026 19.98435948 46.70225565 17.84373396 46.7421875 15.703125 C46.83956973 10.46883018 46.91933574 5.23468575 47 0 C53.93 0 60.86 0 68 0 C68 24.09 68 48.18 68 73 C61.4 73 54.8 73 48 73 C48 70.69 48 68.38 48 66 C47.40832031 66.39832031 46.81664062 66.79664063 46.20703125 67.20703125 C30.71250166 77.59569628 30.71250166 77.59569628 19.8671875 75.609375 C12.80180511 73.68916654 6.73196823 69.34793637 2.8046875 63.09765625 C0.54271656 58.07959449 -0.12652534 53.0141157 -0.11352539 47.56713867 C-0.11344986 46.50641647 -0.11337433 45.44569427 -0.11329651 44.35282898 C-0.10813522 43.2193251 -0.10297394 42.08582123 -0.09765625 40.91796875 C-0.0962413 39.74865311 -0.09482635 38.57933746 -0.09336853 37.37458801 C-0.08777793 33.64553249 -0.07522709 29.91653733 -0.0625 26.1875 C-0.05748379 23.65690191 -0.05292109 21.12630288 -0.04882812 18.59570312 C-0.03781156 12.39711221 -0.02055332 6.19856634 0 0 Z " fill="#FEFEFE" transform="translate(100,67)"/>
<path d="M0 0 C0 6.93 0 13.86 0 21 C6.27 21 12.54 21 19 21 C19.020625 23.619375 19.04125 26.23875 19.0625 28.9375 C19.071604 29.7637085 19.08070801 30.58991699 19.09008789 31.44116211 C19.09723945 33.29433759 19.0502852 35.14749308 19 37 C18 38 18 38 16.23413086 38.11352539 C15.48526611 38.10828857 14.73640137 38.10305176 13.96484375 38.09765625 C13.15595703 38.09443359 12.34707031 38.09121094 11.51367188 38.08789062 C10.66353516 38.07951172 9.81339844 38.07113281 8.9375 38.0625 C8.08349609 38.05798828 7.22949219 38.05347656 6.34960938 38.04882812 C4.23304337 38.03700373 2.11651315 38.01906769 0 38 C0.09367845 42.76922298 0.19980386 47.5379469 0.31738281 52.30664062 C0.35562358 53.92830859 0.39048503 55.55005996 0.421875 57.171875 C0.46763257 59.50551117 0.52560816 61.83857562 0.5859375 64.171875 C0.59748871 64.89493835 0.60903992 65.61800171 0.62094116 66.36297607 C0.73715009 70.34235139 1.16736145 72.33472289 3 76 C8.28 76 13.56 76 19 76 C19 81.94 19 87.88 19 94 C17.68 94 16.36 94 15 94 C15 94.66 15 95.32 15 96 C-5.28402765 97.20499174 -5.28402765 97.20499174 -14 90 C-19.31554257 84.76979871 -21.0387158 78.00476803 -21.22705078 70.6953125 C-21.22673985 69.1718383 -21.21578638 67.64833665 -21.1953125 66.125 C-21.1924826 65.31506592 -21.18965271 64.50513184 -21.18673706 63.6706543 C-21.17564715 61.11361166 -21.15056452 58.55693465 -21.125 56 C-21.1149557 54.25391135 -21.1058324 52.50781715 -21.09765625 50.76171875 C-21.07574466 46.50767415 -21.04129382 42.25389881 -21 38 C-24.96 38 -28.92 38 -33 38 C-33 32.39 -33 26.78 -33 21 C-29.04 21 -25.08 21 -21 21 C-21 15.06 -21 9.12 -21 3 C-18.64875 2.505 -16.2975 2.01 -13.875 1.5 C-13.14651855 1.34337891 -12.41803711 1.18675781 -11.66748047 1.02539062 C-7.58132139 0.18754515 -4.25355644 0 0 0 Z " fill="#FEFEFE" transform="translate(240,46)"/>
<path d="M0 0 C6.93 0 13.86 0 21 0 C21 34.32 21 68.64 21 104 C14.07 104 7.14 104 0 104 C0 69.68 0 35.36 0 0 Z " fill="#FEFEFE" transform="translate(178,36)"/>
<path d="M0 0 C0 6.93 0 13.86 0 21 C-2.97 21 -5.94 21 -9 21 C-13.68921 22.10334353 -17.31861972 23.87882976 -21 27 C-24.60144139 32.95603993 -25.59893347 38.5550786 -25.609375 45.41015625 C-25.62591125 46.26306747 -25.64244751 47.1159787 -25.65948486 47.99473572 C-25.70756346 50.68406662 -25.72924529 53.3728339 -25.75 56.0625 C-25.77819341 57.90041838 -25.80812548 59.73831095 -25.83984375 61.57617188 C-25.91654408 66.0510305 -25.95743386 70.52417011 -26 75 C-32.93 75 -39.86 75 -47 75 C-47 50.91 -47 26.82 -47 2 C-40.07 2 -33.14 2 -26 2 C-25.67 4.64 -25.34 7.28 -25 10 C-24.56429687 9.52949219 -24.12859375 9.05898437 -23.6796875 8.57421875 C-16.2739234 0.83182901 -10.73548759 -1.53364108 0 0 Z " fill="#FEFEFE" transform="translate(632,65)"/>
<path d="M0 0 C1 1 1 1 1.11352539 3.04125977 C1.10828857 3.91580811 1.10305176 4.79035645 1.09765625 5.69140625 C1.09443359 6.63564453 1.09121094 7.57988281 1.08789062 8.55273438 C1.07532227 10.04256836 1.07532227 10.04256836 1.0625 11.5625 C1.05798828 12.55958984 1.05347656 13.55667969 1.04882812 14.58398438 C1.03700007 17.05604849 1.02051849 19.52799518 1 22 C-0.51980469 22.03867188 -0.51980469 22.03867188 -2.0703125 22.078125 C-3.42191597 22.13444181 -4.77347681 22.19178833 -6.125 22.25 C-6.79015625 22.26417969 -7.4553125 22.27835938 -8.140625 22.29296875 C-13.21025175 22.54147987 -16.21251739 23.63096447 -20 27 C-23.8869453 32.70043056 -24.59966326 37.98744253 -24.609375 44.75 C-24.62591125 45.64871826 -24.64244751 46.54743652 -24.65948486 47.47338867 C-24.70768104 50.31566392 -24.72927224 53.1574053 -24.75 56 C-24.77818347 57.93882853 -24.8081142 59.87763251 -24.83984375 61.81640625 C-24.9166906 66.5445097 -24.95747274 71.27096813 -25 76 C-31.93 76 -38.86 76 -46 76 C-46 51.91 -46 27.82 -46 3 C-35.605 2.505 -35.605 2.505 -25 2 C-25 5.3 -25 8.6 -25 12 C-24.154375 10.9275 -23.30875 9.855 -22.4375 8.75 C-16.22648149 1.51357749 -9.37039802 -0.36039992 0 0 Z " fill="#FDFDFC" transform="translate(395,64)"/>
<path d="M0 0 C6.00289324 3.09826748 10.94311203 8.01122406 13.9375 14 C14.9275 14.33 15.9175 14.66 16.9375 15 C16.9375 15.66 16.9375 16.32 16.9375 17 C17.55625 17.268125 18.175 17.53625 18.8125 17.8125 C20.9375 19 20.9375 19 22.9375 22 C16.00749798 27.12441837 16.00749798 27.12441837 12.25 26.6875 C9.21330479 24.47153323 7.26464778 21.95610664 4.9375 19 C4.2775 18.67 3.6175 18.34 2.9375 18 C2.9375 17.34 2.9375 16.68 2.9375 16 C2.0403125 15.566875 2.0403125 15.566875 1.125 15.125 C-1.0625 14 -1.0625 14 -4.0625 12 C-4.0625 11.34 -4.0625 10.68 -4.0625 10 C-4.7225 10 -5.3825 10 -6.0625 10 C-6.0625 9.34 -6.0625 8.68 -6.0625 8 C-7.0525 7.67 -8.0425 7.34 -9.0625 7 C-7.69702354 2.90357061 -4.53826801 0 0 0 Z " fill="#FEFEFE" transform="translate(876.0625,60)"/>
</svg>
